<svg version="1.2" xmlns="http://www.w3.org/2000/svg" viewBox="0 0 449 186" width="449" height="186"><style>.a{fill:#fff}</style><path fill-rule="evenodd" class="a" d="m93.3 0c-51.1 0-92.4 41.4-92.4 92.5 0 51 41.3 92.4 92.4 92.4 51.1 0 92.4-41.4 92.4-92.4 0-51.1-41.3-92.5-92.4-92.5zm2.6 176.7c-42.3 2.7-73.8-29.8-80.5-49.8 0.3-0.1 0.7-0.4 0.7-0.4 10.2-2.9 20.1 2.3 31.4 11.7 8.1 6.9 24.3 25.6 44.2 34.6 1.8 0.9 2.6 1.3 4.7 2.1-0.1 0.2-0.4 1.3-0.5 1.8zm29.8-6.3c-1.3 0.5-11.7 3.8-19.7 1.6-1.5-0.4-3-0.9-4.5-1.5-11-4-21.2-10.8-30.7-18.3-12.1-9.4-20.9-21.6-37.2-29.2 0.1-0.2 0.2-0.5 0.3-0.9 9 1.1 20.3 2.2 35.2 11.3 5.7 3.5 29.2 17.4 32.4 19q9.5 4.6 19.7 7.6c3.8 1.1 7.7 2 11.6 2.7 0 0 3.2 0.4 4.2 0.5l0.6 1.4c-2.5 1.5-8.9 4.8-11.9 5.8zm28.8-19c-9.3 8-22.5 6.3-31.6 4.1-13.8-3.3-35.9-15.9-41.7-19.7 0.1-0.2 0.5-0.7 0.6-0.8 10.8 3.8 54.4 14.8 82.7 0.4 0.2 0.2 0.4 0.4 0.6 0.7 0.2 0.2 0.7 0.6 0.9 0.9-3 4.9-7.9 10.8-11.5 14.4zm-5.3-16.6c1.2-1.1 2.1-2.5 2.6-4.1l4-12.5h-6.2c-4.9 7.5-16.7 6.4-26.5 0.3-15.4-9.6-26.1-15.5-33.6-15.9q-1.6-0.1-3 0.1 0 0 0 0c1.2 11.8 3.5 19.1 4.8 22.5 0.6 1.5 0.9 2.2 0.9 2.2l-1.4-0.3c0 0-0.4-0.5-1.1-1.6-1.9-2.8-5.5-9.3-8.4-20.5-2.1 1.8-3.7 4.3-4.1 7.1q-0.2 1.3-0.2 2.5l3.2 7.3 4.1 9.5c-1.5-0.5-3.3-1.3-5.4-2.1-14.5-6.1-43.9-18.3-66.2-7.9-3.3-9-5.1-18.8-5.1-28.9 0-47.3 38.4-85.7 85.7-85.7 47.3 0 85.6 38.4 85.6 85.7 0 7.7-1.6 18.8-2.9 22.3-4.7 10.6-14.5 16.9-26.8 20z"/><path fill-rule="evenodd" class="a" d="m139.2 82.4c1.1-6.9 3.4-13.5 6.7-19.5-4.1-2.4-8.6-4.3-13.3-5.6-4.3-1.1-8.7-1.7-13.4-1.7-9.1 0-17.6 2.4-25.1 6.4q-2 3.8-3.4 7.8l-0.1 0.1v0.1c-3 0.8-6 2-8.7 3.5-3 4.5-4.7 10-4.7 15.8 0 3.9 0.8 7.7 2.2 11.1q0.7 1.8 1.7 3.5l-0.7-4.6c2.1-1.5 4.9-2.2 8-2.2 8.3 0 19.7 4.9 31.9 13.8q-0.2-0.4-0.3-0.8c-1.9-5.3-3-11-3-17 0-7 1.4-13.5 4-19.5-4.1-2.3-8.6-3.8-13.3-4.6l0.2-0.6c5.7 0.4 11.2 1.8 16.3 4-1.7 4.9-2.6 10.2-2.6 15.6 0 6.1 1.1 11.9 3.2 17.2 7.5 2.9 14.1 7.5 19.5 13.3l0.7-0.3c-4.2-8-6.5-17.1-6.5-26.8q0-4.6 0.7-9z"/><path fill-rule="evenodd" class="a" d="m53.6 64.2c0.5 6 1.5 16.1 1.5 16.1h1.8c0 0 1-10.1 1.6-16.1 0.3-3.6 1.8-5.1 4.3-5.8 2.1-0.5 8.6-1.4 8.6-1.4v-1.7c0 0-6.8-0.7-9-1.4-1.6-0.6-3.3-1.2-4.1-4.2-0.7-2.3-1.4-9.4-1.4-9.4h-0.9-0.8c0 0-0.8 7.1-1.4 9.4-0.9 3-2.5 3.6-4.2 4.2-2.2 0.7-9 1.4-9 1.4v1.7c0 0 6.5 0.9 8.6 1.4 2.6 0.7 4 2.2 4.4 5.8z"/><path fill-rule="evenodd" class="a" d="m123.2 47.3l-1.5 6.4c-4.2-3.6-9.6-5.9-15.5-6.2l-0.3-1c2.4-1.1 5.1-1.6 7.8-1.6 3.5 0 6.7 0.8 9.5 2.4z"/><path class="a" d="m243.7 92.5v1.8q0 3.6 0 7.1 0 3.5 0.1 6.9h2.9q5.4 0 8.3-3.9 3-3.8 3-10.8 0-7.1-2.9-10.9-2.9-3.8-8-3.8h-3.3q-0.1 3.4-0.1 6.8 0 3.4 0 6.8zm-6.9-13.3l-4.4-0.5v-2.5h15.5q5.3 0 9.2 2.1 3.9 2 6.1 5.9 2.1 3.9 2.1 9.4 0 5.6-2.4 9.4-2.3 3.9-6.5 6-4.1 2-9.5 2h-14.5v-2.5l4.4-0.4q0.1-3.3 0.1-6.7 0-3.5 0-7.1v-1.8q0-3.3 0-6.6 0-3.4-0.1-6.7zm52 32.4q-2.1 0-3.4-1-1.3-1.1-1.8-2.9-1.9 2-3.5 3-1.6 1-4.1 1-2.9 0-5-1.6-2-1.8-2-5 0-1.7 0.8-3.1 0.8-1.4 2.8-2.7 2-1.3 5.8-2.5 1.1-0.3 2.4-0.7 1.3-0.4 2.7-0.7v-1.5q0-3.7-1.1-4.9-1-1.3-3.6-1.3-0.4 0-1 0-0.5 0.1-1.1 0.2l-0.6 2.9q-0.3 1.8-1.1 2.7-0.9 0.9-2.2 0.9-2.6 0-3-2.3 0.5-3.2 3.4-5.1 2.9-1.8 7.7-1.8 4.5 0 6.6 2.2 2.1 2.1 2.1 7.2v11.5q0 2.3 1.6 2.3 1 0 1.8-1.1l1.2 1q-0.9 1.8-2.3 2.6-1.2 0.7-3.1 0.7zm-13.6-7.6q0 2.1 1 3 1.1 0.9 2.7 0.9 0.9 0 1.8-0.4 0.9-0.4 2.8-1.7v-8.3q-1.1 0.3-2.1 0.7-1 0.3-1.7 0.5-2.6 1.1-3.6 2.4-0.9 1.4-0.9 2.9zm30.2 7.7q-3.2 0-5-1.5-1.7-1.6-1.7-5.1 0-1.2 0-2.2 0-1.1 0-2.6v-11.2h-3.9v-2.7l4.3-0.6 2-7.2h4.2l-0.2 7.3h6.3v3.2h-6.3v15.5q0 1.9 0.7 2.8 0.8 0.9 2 0.9 1.4 0 3.2-1.3l1.3 1.3q-1 1.6-2.7 2.5-1.8 0.9-4.2 0.9zm28.5-0.1q-2.1 0-3.4-1-1.3-1.1-1.7-2.9-2 2-3.6 3-1.5 1-4 1-3 0-5-1.6-2-1.8-2-5 0-1.7 0.8-3.1 0.8-1.4 2.7-2.7 2.1-1.3 5.9-2.5 1-0.3 2.3-0.7 1.3-0.4 2.7-0.7v-1.5q0-3.7-1.1-4.9-0.9-1.3-3.5-1.3-0.5 0-1.1 0-0.5 0.1-1.1 0.2l-0.6 2.9q-0.2 1.8-1.1 2.7-0.9 0.9-2.2 0.9-2.5 0-2.9-2.3 0.4-3.2 3.3-5.1 3-1.8 7.7-1.8 4.6 0 6.7 2.2 2.1 2.1 2.1 7.2v11.5q0 2.3 1.5 2.3 1 0 1.8-1.1l1.2 1q-0.9 1.8-2.2 2.6-1.3 0.7-3.2 0.7zm-13.6-7.6q0 2.1 1.1 3 1.1 0.9 2.6 0.9 0.9 0 1.8-0.4 0.9-0.4 2.8-1.7v-8.3q-1.1 0.3-2.1 0.7-0.9 0.3-1.6 0.5-2.6 1.1-3.6 2.4-1 1.4-1 2.9zm38.5 7.9q-5.1 0-9.2-2.2-4.1-2.2-6.4-6.3-2.3-4.1-2.3-9.8 0-5.7 2.4-9.8 2.4-4.1 6.5-6.3 4.2-2.2 9.2-2.2 2.5 0 5.1 0.6 2.6 0.6 5.1 2l0.2 7.9h-3.6l-1.3-6.5q-1.1-0.7-2.3-0.9-1.1-0.3-2.3-0.3-3.1 0-5.8 1.8-2.6 1.6-4.3 5.1-1.5 3.4-1.5 8.6 0 5.2 1.4 8.7 1.5 3.4 4.1 5.1 2.6 1.7 5.8 1.7 2.7 0 5.4-1.2l1.2-6.4h3.6l-0.2 7.8q-2.3 1.2-5 1.9-2.7 0.7-5.8 0.7zm27.4-0.2q-3.6 0-6.5-1.5-2.8-1.6-4.5-4.6-1.7-3-1.7-7.1 0-4.2 1.8-7.2 1.7-3 4.6-4.6 2.9-1.5 6.3-1.5 3.3 0 6.2 1.5 2.9 1.6 4.7 4.6 1.8 2.9 1.8 7.2 0 4.2-1.8 7.2-1.7 2.9-4.5 4.5-2.9 1.5-6.4 1.5zm0-2.5q2.8 0 4.3-2.7 1.5-2.6 1.5-8 0-10.8-5.8-10.8-5.8 0-5.8 10.8 0 5.4 1.5 8 1.4 2.7 4.3 2.7zm30.5 1.8h-14.1v-2.1l3.4-0.7q0-2 0-4.2 0-2.3 0-4v-2.8q0-2.1 0-3.4 0-1.3-0.1-2.9l-3.7-0.5v-1.9l8.8-3.3 0.8 0.5 0.5 6.2q1.2-3.3 3.3-5 2-1.7 4.1-1.7 1.4 0 2.5 0.7 1.2 0.7 1.6 2.1 0 1.9-0.9 3-0.9 1.1-2.5 1.1-1.9 0-3.6-1.9l-0.4-0.5q-2.8 2.3-4 6.5v3.8q0 1.6 0 3.9 0 2.2 0 4.1l4.3 0.9zm20.9-23.4q-1.3 0-2.5 0.9-1.2 0.7-2.1 2.6-0.8 1.8-1.1 5h7.2q1.9 0 2.5-0.8 0.7-0.8 0.7-2.2 0-2.4-1.4-4-1.4-1.5-3.3-1.5zm0 24.1q-3.7 0-6.4-1.6-2.8-1.6-4.4-4.5-1.6-3-1.6-7.1 0-4.2 1.8-7.2 1.8-3 4.7-4.6 3-1.6 6.3-1.6 3.1 0 5.4 1.3 2.3 1.3 3.5 3.7 1.4 2.3 1.4 5.5 0 1.7-0.4 2.9h-16q0.2 4.5 2.4 6.8 2.2 2.2 5.5 2.2 2.3 0 3.8-0.8 1.7-1 3-2.5l1.5 1.4q-1.5 2.9-4.2 4.5-2.6 1.6-6.3 1.6z"/><path fill-rule="evenodd" class="a" d="m232 0h93v6h-93z"/></svg>