<?xml version="1.0" encoding="utf-8"?>
<!-- Generator: Adobe Illustrator 26.0.3, SVG Export Plug-In . SVG Version: 6.00 Build 0)  -->
<svg version="1.0" id="katman_1" xmlns="http://www.w3.org/2000/svg" xmlns:xlink="http://www.w3.org/1999/xlink" x="0px" y="0px"
	 viewBox="0 0 600 450" style="enable-background:new 0 0 600 450;" xml:space="preserve">
<style type="text/css">
	.st0{fill:#042354;}
</style>
<path class="st0" d="M387.1,266.6c0-4.6-3.7-8.3-8.3-8.3s-8.3,3.7-8.3,8.3c0,4.6,3.7,8.3,8.3,8.3S387.1,271.2,387.1,266.6
	L387.1,266.6z"/>
<path class="st0" d="M387.1,179.5c0-4.6-3.7-8.3-8.3-8.3c-4.6,0-8.3,3.7-8.3,8.3c0,4.6,3.7,8.3,8.3,8.3l0,0
	C383.4,187.8,387.1,184.1,387.1,179.5z"/>
<circle class="st0" cx="440.8" cy="266.4" r="8.3"/>
<path class="st0" d="M466.9,226.6l-121.8,0.2c-2.4,0-4.4,2-4.4,4.4l0,0c-0.1,2.4,1.8,4.5,4.2,4.6c0.1,0,0.1,0,0.2,0l121.9-0.2
	c1.7,0,3,1.3,3,3v0v55.9c0,1.7-1.3,3-3,3h0H217.7c-1.7,0-3-1.3-3-3l0,0l-0.3-13.7c0-2.3-1.7-4.2-4-4.5h-0.1
	c-2.5-0.2-4.7,1.6-4.9,4.1c0,0.1,0,0.3,0,0.4l0.2,13.7c0,6.6,5.4,12,12.1,12h249.2c6.6,0,12-5.3,12.1-11.9v-55.9
	C479,232,473.6,226.6,466.9,226.6z"/>
<circle class="st0" cx="410.7" cy="266.4" r="8.3"/>
<circle class="st0" cx="440.8" cy="179.5" r="8.3"/>
<circle class="st0" cx="410.6" cy="179.5" r="8.3"/>
<path class="st0" d="M466.9,313.7H217.7c-6.7,0-12.1,5.4-12.1,12.1v55.9c0,6.7,5.4,12.1,12.1,12.1h249.2c6.7,0,12.1-5.4,12.1-12.1
	v-55.9C479,319.1,473.6,313.7,466.9,313.7z M470,381.7c0,0.6-0.2,1.2-0.5,1.7l-0.4,0.4c-0.6,0.6-1.3,0.9-2.1,0.9H217.7
	c-1.7,0-3-1.3-3-3l0,0v-55.9c0-0.8,0.3-1.6,0.9-2.1c0.6-0.6,1.3-0.9,2.1-0.9H467c0.4,0,0.8,0.1,1.2,0.2l0.9,0.6h0.1l0.4,0.4
	c0.3,0.5,0.5,1.1,0.5,1.7L470,381.7z"/>
<path class="st0" d="M410.6,345.4c-4.6,0-8.3,3.7-8.3,8.3s3.7,8.3,8.3,8.3c4.6,0,8.3-3.7,8.3-8.3c0,0,0,0,0,0
	C418.9,349.1,415.2,345.4,410.6,345.4z"/>
<path class="st0" d="M378.8,345.5c-4.6,0-8.3,3.7-8.3,8.3c0,4.6,3.7,8.3,8.3,8.3c4.6,0,8.3-3.7,8.3-8.3c0-4.5-3.6-8.3-8.2-8.3
	C378.9,345.5,378.9,345.5,378.8,345.5z"/>
<path class="st0" d="M440.8,345.4c-4.6,0-8.3,3.7-8.3,8.3s3.7,8.3,8.3,8.3s8.3-3.7,8.3-8.3S445.4,345.4,440.8,345.4L440.8,345.4z"/>
<path class="st0" d="M466.9,139.4l-120.8,0.2c-2.1,0-3.9,1.7-3.9,3.9l0,0v1.3c0,2.1,1.7,3.9,3.9,3.9l120.9-0.2c1.7,0,3,1.3,3,3
	c0,0,0,0,0,0v55.9c0,1.7-1.3,3-3,3l0,0l-122,0.2c-2.1,0-3.8,1.7-3.9,3.8v1.3c-0.1,2.1,1.6,3.9,3.7,4c0,0,0.1,0,0.1,0l118.1-0.2
	c8.8,0,15.9-7.1,16-15.9v-52.1C479,144.8,473.6,139.4,466.9,139.4z"/>
<path class="st0" d="M231.4,267.9h76.6c12.2-0.1,23.6-9,24-20.8c0.6-22.3,0-89.4,0-89.4c0-13.2-10.7-24-24-24v-12.4L335.4,94h0.1
	c1.9,0.9,4,1.4,6.2,1.4c8,0,14.5-6.4,14.5-14.4c0-8-6.4-14.5-14.4-14.5s-14.5,6.4-14.5,14.4c0,2.2,0.5,4.4,1.4,6.4h-0.1L299.9,116
	c-0.9,0.9-1.5,2.1-1.4,3.4v14.4h-9.6v-18.4c0-2.6-2.2-4.8-4.8-4.8c-2.6,0-4.8,2.1-4.8,4.8v18.4h-9.6v-33.6
	c7.5-2.6,11.4-10.8,8.8-18.3c-2.6-7.5-10.8-11.4-18.3-8.8c-7.5,2.6-11.4,10.8-8.8,18.3c0,0,0,0,0,0.1c1.4,4.1,4.7,7.3,8.8,8.7v33.6
	h-9.6v-18.4c0-2.6-2.2-4.8-4.8-4.8c-2.6,0-4.8,2.1-4.8,4.8v18.4h-9.6v-33.6c0-1.3-0.5-2.5-1.4-3.4l-19.2-19.2l0,0
	c0.9-1.9,1.4-4,1.4-6.2c0-7.9-6.4-14.4-14.3-14.5s-14.4,6.4-14.5,14.3s6.4,14.4,14.3,14.5c0,0,0,0,0.1,0c2.1,0,4.3-0.5,6.2-1.4h0.1
	l17.7,17.7v31.6c-13.2,0-24,10.7-24,24c0,0,0,0,0,0h-17.2l-12.9-12.9h-0.1c0.9-1.9,1.4-4,1.5-6.2c0-7.9-6.4-14.4-14.4-14.4
	c-7.9,0-14.4,6.4-14.4,14.4c0,7.9,6.4,14.4,14.4,14.4c2.1,0,4.2-0.5,6.2-1.4l0,0l14.4,14.4c0.9,0.9,2.1,1.4,3.4,1.4h19.2v9.6h-28.7
	c-1.1,0-2.1,0.3-3,1L145,194.8c-2.6-2.3-5.9-3.6-9.4-3.6c-7.9,0-14.4,6.4-14.4,14.4c0,7.9,6.4,14.4,14.4,14.4
	c7.9,0,14.4-6.4,14.4-14.4c0-0.8-0.1-1.5-0.3-2.3l21.1-16.9h27v9.6h-14.4c-2.6,0-4.8,2.2-4.8,4.8c0,2.6,2.1,4.8,4.8,4.8h14.4v9.6
	h-33.5c-2.6,0-4.8,2.1-4.8,4.8c0,2.6,2.1,4.8,4.8,4.8c0,0,0,0,0,0h33.5v9.6h-24c-1.6,0-3.1,0.8-3.9,2.1l-18.7,28
	c-1.9-0.9-4-1.3-6.1-1.4c-8,0-14.5,6.4-14.5,14.4c0,8,6.4,14.5,14.4,14.5c8,0,14.5-6.4,14.5-14.4c0-2.2-0.5-4.4-1.4-6.4l0.6-0.7
	l17.7-26.6h21.4c0,13.2,10.7,23.9,24,24H231.4z M338.9,77c0.8-0.5,1.8-0.8,2.7-0.8c0.6,0,1.3,0.1,1.9,0.4c1.8,0.8,2.9,2.5,2.9,4.4
	c0,1.7-0.9,3.3-2.4,4.1c-0.7,0.4-1.5,0.7-2.4,0.6c-1,0-1.9-0.3-2.7-0.8c-2.2-1.6-2.7-4.6-1.2-6.8C338.1,77.8,338.5,77.4,338.9,77
	L338.9,77z M200.6,75.4c-0.8,0.5-1.7,0.8-2.7,0.9c-2.6,0-4.8-2.1-4.8-4.8c0-2.6,2.1-4.8,4.8-4.8c1,0,1.9,0.3,2.7,0.8
	c1.3,0.9,2.1,2.4,2.1,4C202.7,73,201.9,74.5,200.6,75.4z M157.5,142.4c-0.8,0.6-1.7,0.9-2.6,0.9c-2.6,0-4.8-2.1-4.8-4.8
	c0-1.3,0.5-2.5,1.4-3.4c0.1-0.1,0.1-0.1,0.1-0.1c0.3-0.3,0.6-0.5,1-0.7c0.7-0.4,1.5-0.6,2.3-0.6c0.9,0,1.9,0.3,2.6,0.8
	c1.3,0.9,2.1,2.4,2.1,4C159.6,140.1,158.8,141.6,157.5,142.4z M139.5,208.3c-0.9,1.3-2.3,2-3.9,2c-2.6,0-4.8-2.1-4.8-4.8
	c0-1.3,0.5-2.5,1.4-3.4c0.9-0.9,2.1-1.4,3.4-1.4c2.6,0,4.8,2.1,4.8,4.8C140.4,206.6,140.1,207.5,139.5,208.3z M148.6,280.8
	c-0.4,0.4-0.9,0.8-1.5,1c-0.6,0.3-1.2,0.4-1.9,0.4c-2.6,0-4.8-2.2-4.8-4.8c0-2.6,2.1-4.8,4.8-4.8c0.6,0,1.3,0.1,1.9,0.4
	c0.6,0.2,1.1,0.6,1.5,1c1.9,1.8,1.9,4.8,0.1,6.7C148.7,280.7,148.6,280.8,148.6,280.8z M265,81.8c2.6,0,4.7,2,4.7,4.6
	c0,0.1,0,0.1,0,0.2c0,1.6-0.8,3.1-2.1,3.9c-1.6,1.1-3.8,1.1-5.4,0l-0.7-0.6c-1.9-1.9-1.8-4.9,0.1-6.8
	C262.5,82.3,263.7,81.8,265,81.8L265,81.8z M217.2,257.5l-1.1-0.4c-5.3-2.2-8.7-7.4-8.7-13.2v-86.2c0-7.9,6.4-14.4,14.4-14.4l0,0
	h86.2c2.4,0,4.8,0.6,6.9,1.7c4.6,2.5,7.5,7.4,7.5,12.7v86.2c0,7.9-6.4,14.4-14.4,14.4l0,0h-86.2c-1.5,0-2.9-0.2-4.3-0.6L217.2,257.5
	z"/>
<path class="st0" d="M236.9,240.8h56c6.7,0,12.1-5.4,12.1-12.1v-55.9c0-6.6-5.4-12-12.1-12h-56c-6.7,0-12.1,5.4-12.1,12v55.9
	C224.9,235.4,230.3,240.8,236.9,240.8z M233.9,172.8c0-0.8,0.3-1.5,0.9-2.1c0.6-0.6,1.3-0.9,2.1-0.9H293c0.4,0,0.8,0.1,1.2,0.3
	l0.9,0.6h0.1l0.4,0.4c0.3,0.5,0.5,1.1,0.5,1.6v55.9c0,0.6-0.2,1.2-0.5,1.7l-0.4,0.4c-0.6,0.6-1.3,0.9-2.1,0.9h-56.1
	c-1.7,0-3-1.3-3-3V172.8z"/>
</svg>
